<svg enable-background="new 0 0 24 24" height="24" viewBox="0 0 24 24" width="24" xmlns="http://www.w3.org/2000/svg"><path d="m.001.001h24v24.001h-24z" fill="none"/><g fill="currentColor"><path d="m12 12c-1.654 0-3-1.346-3-3s1.346-3 3-3 3 1.346 3 3-1.346 3-3 3zm0-4c-.551 0-1 .449-1 1 0 .552.449 1 1 1s1-.448 1-1c0-.551-.449-1-1-1z"/><path d="m12 22.667c-2.359-3.147-7-9.731-7-13.667 0-3.86 3.14-7 7-7s7 3.14 7 7c0 3.936-4.641 10.521-7 13.667zm0-18.667c-2.757 0-5 2.243-5 5 0 2.591 3.107 7.583 5 10.291 1.892-2.709 5-7.702 5-10.291 0-2.757-2.243-5-5-5z"/></g></svg>