<svg enable-background="new 0 0 24 24" height="24" viewBox="0 0 24 24" width="24" xmlns="http://www.w3.org/2000/svg"><path d="m0 0h24v24h-24z" fill="none"/><path d="m21.406 6.087-9-4c-.259-.115-.554-.115-.813 0l-9 4c-.361.161-.593.519-.593.913v10c0 .395.232.753.594.914l9 4c.129.058.267.086.406.086s.277-.029.406-.086l9-4c.362-.16.594-.518.594-.914v-10c0-.394-.232-.752-.594-.913zm-9.406-1.992 6.538 2.905-1.788.795-6.538-2.905zm0 5.812-6.538-2.907 2.288-1.017 6.538 2.906zm-8-1.367 7 3.111v7.812l-7-3.111zm9 10.922v-7.812l7-3.111v7.811z" fill="currentColor"/></svg>