<svg enable-background="new 0 0 24 24" height="24" viewBox="0 0 24 24" width="24" xmlns="http://www.w3.org/2000/svg"><path d="m0 0h24v24h-24z" fill="none"/><g fill="currentFil"><path d="m22 0h-14c-1.104 0-2 .898-2 2v9h2v-9h3v6c0 .404.244.769.617.924.373.154.803.069 1.09-.217l2.293-2.292 2.293 2.293c.191.191.447.292.707.292.129 0 .259-.025.383-.076.373-.154.617-.519.617-.924v-6h3l-.003 12h-6.997v2h7c1.104 0 2-.897 2-2v-12c0-1.102-.896-2-2-2zm-5 5.586-1.293-1.292c-.195-.196-.451-.294-.707-.294s-.512.098-.707.293l-1.293 1.293v-3.586h4z"/><path d="m20 17h-7.586l.293-.292c.305-.305.38-.77.188-1.155l-1-2c-.223-.445-.736-.659-1.211-.501l-4.757 1.585c-.146-.371-.503-.637-.927-.637h-4c-.553 0-1 .448-1 1v8c0 .552.447 1 1 1h4c.553 0 1-.448 1-1h11c.314 0 .611-.148.8-.399l3-4c.228-.303.265-.709.095-1.048-.17-.338-.516-.553-.895-.553zm-18 5v-6h2v6zm14.5-1h-10.5v-4.279l4.494-1.498.289.58-1.49 1.491c-.191.19-.283.447-.283.706h-.01v1h9z"/></g></svg>