<svg enable-background="new 0 0 24 24" height="24" viewBox="0 0 24 24" width="24" xmlns="http://www.w3.org/2000/svg"><path d="m0 0h24v24h-24z" fill="none"/><g fill="currentColor"><path d="m22.937 10.649-3-8c-.147-.39-.52-.649-.937-.649h-14c-.417 0-.79.259-.937.649l-3 8c-.114.307-.072.651.114.92.188.27.495.431.823.431h1v9c0 .552.447 1 1 1h16c.553 0 1-.448 1-1v-9h1c.328 0 .635-.161.822-.431.187-.269.229-.613.115-.92zm-2.38-.649h-2.775l-1.5-6h2.025zm-12.276 0 1.5-6h1.219v6zm4.719-6h1.219l1.5 6h-2.719zm-7.307 0h2.025l-1.5 6h-2.775zm8.307 16v-5h2v5zm5 0h-1v-6c0-.552-.447-1-1-1h-4c-.553 0-1 .448-1 1v6h-7v-8h14z"/><path d="m7 18h3c.553 0 1-.448 1-1v-3c0-.552-.447-1-1-1h-3c-.553 0-1 .448-1 1v3c0 .552.447 1 1 1z"/></g></svg>