<svg height="24" viewBox="0 0 24 24" width="24" xmlns="http://www.w3.org/2000/svg"><path d="m20 4h-10c-1.104 0-2 .898-2 2v1h-2c-2.205 0-4 1.794-4 4v6c0 .552.447 1 1 1h2.185c.414 1.162 1.513 2 2.815 2s2.401-.838 2.816-2h3.368c.414 1.162 1.514 2 2.815 2s2.401-.838 2.816-2h1.185c.553 0 1-.448 1-1v-11c0-1.102-.896-2-2-2zm0 2v10h-.184c-.415-1.162-1.515-2-2.816-2s-2.401.838-2.816 2h-3.367c-.17-.474-.45-.889-.816-1.219v-8.781zm-16 5c0-1.103.896-2 2-2h2v5c-1.302 0-2.401.838-2.816 2h-1.184zm4 7c-.551 0-1-.448-1-1 0-.551.449-1 1-1s1 .449 1 1c0 .552-.449 1-1 1zm9 0c-.551 0-1-.448-1-1 0-.551.449-1 1-1s1 .449 1 1c0 .552-.449 1-1 1zm-12-8h2v2h-2z" fill="currentColor" transform="matrix(-1 0 0 1 24 0)"/></svg>